<svg id="图层_1" data-name="图层 1" xmlns="http://www.w3.org/2000/svg" viewBox="0 0 570 570"><defs><style>.cls-1{fill:none;}.cls-2{fill:#eae8ea;}.cls-3{fill:#d90a14;}</style></defs><title>画板 1</title><path class="cls-1" d="M485.82,84.18A283.91,283.91,0,0,0,1,285H569A283.11,283.11,0,0,0,485.82,84.18Z"/><path class="cls-2" d="M23.32,174.45A284,284,0,0,1,569,285h1C570,127.6,442.4,0,285,0S0,127.6,0,285H1A282.22,282.22,0,0,1,23.32,174.45Z"/><path class="cls-3" d="M569,285A284.08,284.08,0,0,1,23.32,395.55,282.22,282.22,0,0,1,1,285H0C0,442.4,127.6,570,285,570S570,442.4,570,285Z"/></svg>