<svg id="图层_1" data-name="图层 1" xmlns="http://www.w3.org/2000/svg" viewBox="0 0 15 15"><defs><style>.cls-1{fill:#bd1610;}</style></defs><title>画板 1</title><path class="cls-1" d="M9.13,5.84l3.75-.32,1.62-.13q.49,0,.49.42a.34.34,0,0,1-.1.26q-.1.09-1.51,1l-3.16,2,2,5.08a.55.55,0,0,1,0,.24.35.35,0,0,1-.11.26.33.33,0,0,1-.24.11.45.45,0,0,1-.25-.08q-.13-.08-1.39-1.17L7.5,11.09,4.74,13.48q-1.3,1.13-1.43,1.21a.43.43,0,0,1-.24.08.39.39,0,0,1-.37-.37q0-.09.56-1.5l1.5-3.81L1.55,7Q.19,6.16.09,6.07A.34.34,0,0,1,0,5.82q0-.43.5-.43l1.38.12,4,.34L6.76,2A13.78,13.78,0,0,1,7.19.38.33.33,0,0,1,7.5.23a.32.32,0,0,1,.32.16q.08.16.45,1.77Z"/></svg>