<svg id="图层_1" data-name="图层 1" xmlns="http://www.w3.org/2000/svg" viewBox="0 0 181.92 444"><defs><style>.cls-1{fill:#e3e1e1;}.cls-2,.cls-3{fill:none;stroke:#e3e1e1;stroke-miterlimit:10;}.cls-3{stroke-dasharray:3.1 3.1;}.cls-4{fill:#d80b14;}</style></defs><title>画板 7</title><polygon class="cls-1" points="174.2 382.44 174.2 287.31 90.95 239.75 7.7 287.31 7.7 382.44 90.95 430 174.2 382.44"/><line class="cls-1" x1="80" y1="225" y2="272"/><line class="cls-2" x1="80" y1="225" x2="78.71" y2="225.76"/><line class="cls-3" x1="76.04" y1="227.33" x2="2.63" y2="270.46"/><line class="cls-2" x1="1.29" y1="271.24" y2="272"/><polygon class="cls-4" points="174.2 157.44 174.2 62.31 90.95 14.74 7.7 62.31 7.7 157.44 90.95 205 174.2 157.44"/><line class="cls-1" x1="80" y2="47"/><line class="cls-2" x1="80" x2="78.71" y2="0.76"/><line class="cls-3" x1="76.04" y1="2.33" x2="2.63" y2="45.46"/><line class="cls-2" x1="1.29" y1="46.24" y2="47"/><line class="cls-1" x1="-77.92" y1="225" x2="2.08" y2="272"/><line class="cls-2" x1="0.79" y1="271.24" x2="2.08" y2="272"/><line class="cls-1" x1="-77.92" x2="2.08" y2="47"/><line class="cls-2" x1="0.79" y1="46.24" x2="2.08" y2="47"/></svg>