<svg id="图层_1" data-name="图层 1" xmlns="http://www.w3.org/2000/svg" viewBox="0 0 181.92 444"><defs><style>.cls-1{fill:#e3e1e1;}.cls-2,.cls-3{fill:none;stroke:#e3e1e1;stroke-miterlimit:10;}.cls-3{stroke-dasharray:3.1 3.1;}.cls-4{fill:#d80b14;}</style></defs><title>画板 2</title><polygon class="cls-1" points="172.11 382.44 172.11 287.31 88.86 239.75 5.62 287.31 5.62 382.44 88.86 430 172.11 382.44"/><line class="cls-1" x1="101.92" y1="225" x2="181.92" y2="272"/><line class="cls-2" x1="101.92" y1="225" x2="103.21" y2="225.76"/><line class="cls-3" x1="105.88" y1="227.33" x2="179.29" y2="270.46"/><line class="cls-2" x1="180.62" y1="271.24" x2="181.92" y2="272"/><polygon class="cls-4" points="172.11 157.44 172.11 62.31 88.86 14.74 5.62 62.31 5.62 157.44 88.86 205 172.11 157.44"/><line class="cls-1" x1="101.92" x2="181.92" y2="47"/><line class="cls-2" x1="101.92" x2="103.21" y2="0.76"/><line class="cls-3" x1="105.88" y1="2.33" x2="179.29" y2="45.46"/><line class="cls-2" x1="180.62" y1="46.24" x2="181.92" y2="47"/><line class="cls-2" x1="183.21" y1="271.24" x2="181.92" y2="272"/><line class="cls-2" x1="183.21" y1="46.24" x2="181.92" y2="47"/></svg>