<svg id="图层_1" data-name="图层 1" xmlns="http://www.w3.org/2000/svg" viewBox="0 0 181.92 444"><defs><style>.cls-1,.cls-3{fill:none;stroke:#e3e1e1;stroke-miterlimit:10;}.cls-2{fill:#e3e1e1;}.cls-3{stroke-dasharray:3.1 3.1;}.cls-4{fill:#d80b14;}</style></defs><title>画板 6</title><line class="cls-1" x1="183.21" y1="271.24" x2="181.92" y2="272"/><line class="cls-1" x1="183.21" y1="46.24" x2="181.92" y2="47"/><polygon class="cls-2" points="175.2 382.44 175.2 287.31 91.95 239.75 8.7 287.31 8.7 382.44 91.95 430 175.2 382.44"/><line class="cls-2" x1="104" y1="225" x2="184" y2="272"/><line class="cls-1" x1="104" y1="225" x2="105.29" y2="225.76"/><line class="cls-3" x1="107.96" y1="227.33" x2="181.37" y2="270.46"/><line class="cls-2" x1="80" y1="444" y2="397"/><line class="cls-1" x1="80" y1="444" x2="78.71" y2="443.24"/><line class="cls-3" x1="76.04" y1="441.67" x2="2.63" y2="398.54"/><line class="cls-1" x1="1.29" y1="397.76" y2="397"/><polygon class="cls-4" points="175.2 157.44 175.2 62.31 91.95 14.74 8.7 62.31 8.7 157.44 91.95 205 175.2 157.44"/><line class="cls-2" x1="104" x2="184" y2="47"/><line class="cls-1" x1="104" x2="105.29" y2="0.76"/><line class="cls-3" x1="107.96" y1="2.33" x2="181.37" y2="45.46"/><line class="cls-2" x1="80" y1="219" y2="172"/><line class="cls-1" x1="80" y1="219" x2="78.71" y2="218.24"/><line class="cls-3" x1="76.04" y1="216.67" x2="2.63" y2="173.54"/><line class="cls-1" x1="1.29" y1="172.76" y2="172"/><line class="cls-2" x1="-77.92" y1="444" x2="2.08" y2="397"/><line class="cls-1" x1="0.79" y1="397.76" x2="2.08" y2="397"/><line class="cls-2" x1="-77.92" y1="219" x2="2.08" y2="172"/><line class="cls-1" x1="0.79" y1="172.76" x2="2.08" y2="172"/></svg>