<svg id="图层_1" data-name="图层 1" xmlns="http://www.w3.org/2000/svg" viewBox="0 0 181.92 444"><defs><style>.cls-1,.cls-3{fill:none;stroke:#e3e1e1;stroke-miterlimit:10;}.cls-2{fill:#e3e1e1;}.cls-3{stroke-dasharray:3.1 3.1;}.cls-4{fill:#d80b14;}</style></defs><title>画板 3</title><line class="cls-1" x1="-1.29" y1="271.24" y2="272"/><line class="cls-1" x1="-1.29" y1="46.24" y2="47"/><line class="cls-1" x1="183.21" y1="397.76" x2="181.92" y2="397"/><line class="cls-1" x1="183.21" y1="172.76" x2="181.92" y2="172"/><polygon class="cls-2" points="173.2 382.44 173.2 287.31 89.95 239.75 6.7 287.31 6.7 382.44 89.95 430 173.2 382.44"/><line class="cls-2" x1="80" y1="225" y2="272"/><line class="cls-1" x1="80" y1="225" x2="78.71" y2="225.76"/><line class="cls-3" x1="76.04" y1="227.33" x2="2.63" y2="270.46"/><line class="cls-1" x1="1.29" y1="271.24" y2="272"/><line class="cls-2" x1="101" y1="444" x2="181" y2="397"/><line class="cls-1" x1="101" y1="444" x2="102.29" y2="443.24"/><line class="cls-3" x1="104.96" y1="441.67" x2="178.37" y2="398.54"/><line class="cls-1" x1="179.71" y1="397.76" x2="181" y2="397"/><polygon class="cls-4" points="173.2 157.44 173.2 62.31 89.95 14.74 6.7 62.31 6.7 157.44 89.95 205 173.2 157.44"/><line class="cls-2" x1="80" y2="47"/><line class="cls-1" x1="80" x2="78.71" y2="0.76"/><line class="cls-3" x1="76.04" y1="2.33" x2="2.63" y2="45.46"/><line class="cls-1" x1="1.29" y1="46.24" y2="47"/><line class="cls-2" x1="101" y1="219" x2="181" y2="172"/><line class="cls-1" x1="101" y1="219" x2="102.29" y2="218.24"/><line class="cls-3" x1="104.96" y1="216.67" x2="178.37" y2="173.54"/><line class="cls-1" x1="179.71" y1="172.76" x2="181" y2="172"/></svg>