<svg id="图层_1" data-name="图层 1" xmlns="http://www.w3.org/2000/svg" viewBox="0 0 276 127"><defs><style>.cls-1{fill:#a0a0a0;}.cls-2{fill:#d80b14;}</style></defs><title>画板 1 副本</title><path class="cls-1" d="M68.5,127C30.73,127,0,95.82,0,57.5A69.3,69.3,0,0,1,27.51,1.81l1.18,1.6A67.31,67.31,0,0,0,2,57.5C2,94.72,31.82,125,68.5,125S135,94.72,135,57.5A67.31,67.31,0,0,0,108.3,3.41l1.18-1.6A69.3,69.3,0,0,1,137,57.5C137,95.82,106.27,127,68.5,127Z"/><circle class="cls-1" cx="110.5" cy="3.5" r="3.5"/><circle class="cls-1" cx="27.5" cy="3.5" r="3.5"/><path class="cls-2" d="M207.5,127C169.73,127,139,95.82,139,57.5A69.3,69.3,0,0,1,166.51,1.81l1.18,1.6A67.31,67.31,0,0,0,141,57.5c0,37.22,29.84,67.5,66.53,67.5S274,94.72,274,57.5A67.31,67.31,0,0,0,247.3,3.41l1.18-1.6A69.3,69.3,0,0,1,276,57.5C276,95.82,245.27,127,207.5,127Z"/><circle class="cls-2" cx="249.5" cy="3.5" r="3.5"/><circle class="cls-2" cx="166.5" cy="3.5" r="3.5"/></svg>