<svg id="图层_1"
    data-name="图层 1"
    xmlns="http://www.w3.org/2000/svg"
    viewBox="0 0 478.41 454.98">
    <defs>
        <style>
            .cls-1{fill:#c9c9c9;}
            .cls-1:hover{fill:#d80b14;}
            .cls-1,.cls-3{stroke:#fff;stroke-miterlimit:10;}
            .cls-2{fill:#d80b14;}
            .cls-3{fill:#f3f3f3;}
        </style>
    </defs>
    <path class="cls-1" d="M260.88,175.56a24.89,24.89,0,0,1,46.42-17.79l5.76-7.93h0L276.13,74.92,239.2,0,202.27,74.92l-36.93,74.92h0l5.77,7.94h0a24.89,24.89,0,1,0,25.32,34.84l5.85,8,36.93,50.83h0l36.93-50.83,5.85-8.05A24.89,24.89,0,0,1,260.88,175.56Z"/>
    <path class="cls-1" d="M173.67,207.42a24.89,24.89,0,0,1-2.57-49.64l-5.76-7.93h0l-82.67,12L0,173.79l59.84,58.28,59.84,58.28h0l9.33-3h0A24.89,24.89,0,1,0,170,274l9.46-3.07,59.76-19.42h0l-36.93-50.83-5.85-8.05A24.89,24.89,0,0,1,173.67,207.42Z"/>
    <path class="cls-1" d="M177,300.21a24.89,24.89,0,0,1-48-12.89l-9.32,3h0l-14.16,82.32L91.37,455l73.92-38.9,73.92-38.9h0v-9.81h0a24.89,24.89,0,1,0,0-43.07V251.51h0l-59.76,19.42L170,274A24.89,24.89,0,0,1,177,300.21Z"/>
    <path class="cls-1" d="M266.31,325.7a24.89,24.89,0,0,1-27.1,41.68v9.8h0l73.92,38.9L387,455l-14.16-82.32-14.16-82.32h0l-9.33-3h0a24.89,24.89,0,1,0-41-13.31L299,270.93l-59.76-19.42h0v72.79A24.89,24.89,0,0,1,266.31,325.7Z"/>
    <path class="cls-1" d="M318.14,248.66a24.89,24.89,0,0,1,31.26,38.65l9.32,3h0l59.84-58.28,59.84-58.28-82.67-12-82.67-12h0l-5.77,7.94h0A24.89,24.89,0,1,0,282,192.63l-5.85,8-36.93,50.83h0L299,270.92l9.46,3.08A24.89,24.89,0,0,1,318.14,248.66Z"/>
    <polygon class="cls-3" points="239.2 202.57 251.76 228.02 279.85 232.1 259.53 251.91 264.33 279.88 239.2 266.68 214.08 279.88 218.88 251.91 198.56 232.1 226.64 228.02 239.2 202.57"/>
</svg>
