<svg id="图层_1" data-name="图层 1" xmlns="http://www.w3.org/2000/svg" viewBox="0 0 460 286"><defs><style>.cls-1{fill:#d80b14;}.cls-2{fill:#fff;}.cls-3{fill:#b5b5b5;}</style></defs><title>画板 2</title><path class="cls-1" d="M224,0H160.77V17H199L115,70,31,17H71.77V0H6A6,6,0,0,0,0,6V280a6,6,0,0,0,6,6H224a6,6,0,0,0,6-6V6A6,6,0,0,0,224,0Z"/><path class="cls-2" d="M236,285.5a5.51,5.51,0,0,1-5.5-5.5V6A5.51,5.51,0,0,1,236,.5h65.27v16h-42L345,70.59,430.73,16.5H391.27V.5H454A5.51,5.51,0,0,1,459.5,6V280a5.51,5.51,0,0,1-5.5,5.5Z"/><path class="cls-3" d="M454,1a5,5,0,0,1,5,5V280a5,5,0,0,1-5,5H236a5,5,0,0,1-5-5V6a5,5,0,0,1,5-5h64.77V16H257.54l2.93,1.85,84,53,.53.34.53-.34,84-53L432.46,16H391.77V1H454m0-1H390.77V17H429L345,70,261,17h40.77V0H236a6,6,0,0,0-6,6V280a6,6,0,0,0,6,6H454a6,6,0,0,0,6-6V6a6,6,0,0,0-6-6Z"/></svg>