<svg id="图层_1" data-name="图层 1" xmlns="http://www.w3.org/2000/svg" viewBox="0 0 30 30"><defs><style>.cls-1{fill:#fff;}</style></defs><title>sidebar_1</title><path class="cls-1" d="M15,2.5C7,2.5.5,7.79.5,14.31a10.83,10.83,0,0,0,4.35,8.43V27.5l5.35-2a17.47,17.47,0,0,0,4.8.66c8,0,14.5-5.29,14.5-11.81S23,2.5,15,2.5Zm0,21.57a15.19,15.19,0,0,1-4.17-.57l-.73-.21-.71.27L7,24.47V21.8l-.77-.61a10,10,0,0,1-2.64-3.13,8,8,0,0,1-.94-3.74C2.67,8.93,8.2,4.54,15,4.54s12.33,4.38,12.33,9.77S21.8,24.07,15,24.07Z"/><path class="cls-1" d="M8.35,12.94A2.09,2.09,0,1,0,10.57,15a2.15,2.15,0,0,0-2.21-2.09h0Z"/><path class="cls-1" d="M15.5,12.94A2.09,2.09,0,1,0,17.72,15a2.16,2.16,0,0,0-2.22-2.09Z"/><path class="cls-1" d="M22.14,12.94A2.09,2.09,0,1,0,24.35,15a2.16,2.16,0,0,0-2.22-2.09Z"/></svg>