<svg id="图层_1" data-name="图层 1" xmlns="http://www.w3.org/2000/svg" viewBox="0 0 30 30"><defs><style>.cls-1{fill:#fff;}</style></defs><title>sidebar_3</title><path id="形状_5" data-name="形状 5" class="cls-1" d="M14.57,24.21l.44.42.43-.42c.32-.32,7.91-7.8,7.91-14.77a8.35,8.35,0,1,0-16.7,0h0c0,7.16,7.59,14.47,7.92,14.78m.44-22a7.16,7.16,0,0,1,7.08,7.21c0,5.51-5.48,11.7-7.09,13.4-1.61-1.66-7.07-7.73-7.07-13.4A7.16,7.16,0,0,1,15,2.21m4,6.95a4,4,0,1,0-4,4,4,4,0,0,0,4-4m-6.64,0A2.68,2.68,0,1,1,15,11.92a2.71,2.71,0,0,1-2.68-2.74h0M29,24.51c0,2.9-7,4.41-14,4.41S1,27.41,1,24.51c0-2.59,5.42-3.59,7.76-4a.64.64,0,0,1,.72.55h0a.66.66,0,0,1-.12.48.63.63,0,0,1-.42.25c-4.86.71-6.67,2-6.67,2.7,0,1.27,5,3.11,12.73,3.11s12.73-1.84,12.73-3.11c0-.67-1.83-2-6.73-2.71a.63.63,0,0,1-.42-.25.66.66,0,0,1-.12-.48.64.64,0,0,1,.72-.55h0c2.35.34,7.83,1.41,7.83,4"/></svg>