<svg id="图层_1" data-name="图层 1" xmlns="http://www.w3.org/2000/svg" viewBox="0 0 30 30"><defs><style>.cls-1{fill:#fff;}</style></defs><title>sidebar_4</title><path class="cls-1" d="M26.36,23a.65.65,0,0,1-.47-.21L16.05,12.27A1.44,1.44,0,0,0,15,11.81a1.42,1.42,0,0,0-1.05.46L4.11,22.79a.64.64,0,0,1-.91,0h0a.67.67,0,0,1,0-.94L13,11.35a2.72,2.72,0,0,1,3.84-.16h0l.15.15,9.82,10.52a.68.68,0,0,1,0,.94.65.65,0,0,1-.45.19h0Z"/><path class="cls-1" d="M26.36,8.33H3.65A.66.66,0,0,1,3.65,7h22.7a.66.66,0,1,1,0,1.33Z"/></svg>