<svg id="图层_1" data-name="图层 1" xmlns="http://www.w3.org/2000/svg" viewBox="0 0 30 31"><defs><style>.cls-1{fill:#fff;}</style></defs><title>sidebar_6</title><path id="形状_8" data-name="形状 8" class="cls-1" d="M15.76,0C26,0,26.55,10,26.55,10a4.13,4.13,0,0,1,.72,4c5,8,1.77,10.34.89,10.51s-1.73-1-1.73-1a3.89,3.89,0,0,1-1,1.76C28,26.5,27.56,28,27.56,28S27,32.71,16.14,29.76l-.93-.17C4.79,33.41,3.5,28.26,3.5,28.26a2.67,2.67,0,0,1,1.6-3A4.3,4.3,0,0,1,3.5,23s-1.05,1.76-2.44,1.12S-1.18,17.8,4,13.68c0,0-.76-2.44,1-3.9C5,9.78,5.48,0,15.76,0M6.62,10.34c-2.27,2-.76,3.95-.76,3.95a8.37,8.37,0,0,0-4.13,8.19A3.53,3.53,0,0,0,3.1,20.88c.57-1.18,1.45.19,1.45.19s.55,2.7,2.23,3.76-.07,1.73-.07,1.73-1.85,0-1.69,1.3,6.12,2.87,9.69,0l1.9.26c6.24,2.21,9.31.15,9.52-.25s-.94-1.17-2-1.62-1.33-.92-.39-1.55,1.3-1.89,1.85-3.18,1.37-.66,1.47-.3a12.65,12.65,0,0,0,.89,1.59s2-2.19-2.19-8.66a3.22,3.22,0,0,0-.63-3.51s-.38-9.09-9.52-9.09-9,8.75-9,8.75" transform="translate(0)"/></svg>