<svg id="图层_1" data-name="图层 1" xmlns="http://www.w3.org/2000/svg" viewBox="0 0 30 30"><defs><style>.cls-1{fill:#fff;}</style></defs><title>sidebar_2</title><path id="形状_3" data-name="形状 3" class="cls-1" d="M8,21.61c5.68,5.24,12.31,7.36,15.78,6,1.7-.68,2.7-1.3,3.21-2.22.7-1.26.2-2.7-1.46-4.3-2.31-2.23-3.89-2.47-5.64-1.25l-.48.36-.46.36-.24.18a4.5,4.5,0,0,1-.9.58c-.52.21-1.35-.26-4.77-3C8.91,15,8.71,14.58,9.55,13.45a11.2,11.2,0,0,1,.77-.89c1.86-2.12,2-3.94-.43-6.32C8.15,4.53,6.63,4,5.21,4.49c-1,.37-1.71,1.05-2.86,2.6C.18,10,2.2,16.31,8,21.61ZM5.75,5.94c.75-.26,1.67.07,3,1.32,1.8,1.73,1.71,2.65.33,4.22a13,13,0,0,0-.84,1c-1.52,2-.94,3.14,3.76,7,4,3.28,5,3.84,6.39,3.28A5.29,5.29,0,0,0,19.63,22l.27-.2.47-.36.42-.31c1.07-.75,1.8-.63,3.59,1.1,1.22,1.18,1.49,1.94,1.19,2.47a4.84,4.84,0,0,1-2.42,1.53c-2.8,1.13-8.81-.8-14.08-5.66S2,10.15,3.64,8c1-1.29,1.49-1.83,2.11-2.06Zm10.86.68a.77.77,0,0,0,0,1.54,5.47,5.47,0,0,1,5.55,5.39h0a.8.8,0,0,0,1.59,0h0a7,7,0,0,0-7.07-6.93Zm0-4.62a.77.77,0,0,0,0,1.54,10.16,10.16,0,0,1,10.31,10,.8.8,0,0,0,1.59,0A11.73,11.73,0,0,0,16.61,2Z"/></svg>