<svg id="图层_1" data-name="图层 1" xmlns="http://www.w3.org/2000/svg" viewBox="0 0 725 565"><defs><style>.cls-1,.cls-2,.cls-3,.cls-4,.cls-5{fill:none;stroke:#ababab;}.cls-1,.cls-2,.cls-3,.cls-4,.cls-5,.cls-6{stroke-miterlimit:10;}.cls-1{stroke-dasharray:1.98 1.98;}.cls-3{stroke-dasharray:1.99 1.99;}.cls-4{stroke-dasharray:2 2;}.cls-5{stroke-dasharray:2 2;}.cls-6{fill:#fff;stroke:#5c5c5c;}</style></defs><title>画板 1</title><line class="cls-1" x1="1.98" y1="237.54" x2="108.01" y2="237.54"/><line class="cls-2" x1="109" y1="237.54" x2="110" y2="237.54"/><line class="cls-2" x1="616" y1="237.54" x2="617" y2="237.54"/><line class="cls-1" x1="618.98" y1="237.54" x2="725.01" y2="237.54"/><line class="cls-2" x1="316.4" y1="264.1" x2="315.89" y2="264.96"/><line class="cls-3" x1="314.88" y1="266.68" x2="208.66" y2="447.85"/><line class="cls-2" x1="208.16" y1="448.71" x2="207.65" y2="449.57"/><line class="cls-2" x1="172.48" y1="449.52" x2="173.48" y2="449.52"/><line class="cls-4" x1="175.48" y1="449.52" x2="206.52" y2="449.52"/><line class="cls-2" x1="207.52" y1="449.52" x2="208.52" y2="449.52"/><line class="cls-2" x1="400.88" y1="264.1" x2="401.39" y2="264.96"/><line class="cls-3" x1="402.4" y1="266.68" x2="508.62" y2="447.85"/><line class="cls-2" x1="509.12" y1="448.71" x2="509.63" y2="449.57"/><line class="cls-2" x1="544.8" y1="449.52" x2="543.8" y2="449.52"/><line class="cls-4" x1="541.8" y1="449.52" x2="510.76" y2="449.52"/><line class="cls-2" x1="509.76" y1="449.52" x2="508.76" y2="449.52"/><polyline class="cls-5" points="39.75 358.75 170.75 358.75 224.5 264.71"/><polyline class="cls-5" points="677.47 358.75 546.47 358.75 492.72 264.71"/><polyline class="cls-5" points="242.5 95.63 272.38 95.63 338.63 210"/><polyline class="cls-5" points="480.14 95.63 450.26 95.63 384.01 210"/><rect class="cls-6" x="90.5" y="210" width="545" height="54"/></svg>