<svg id="图层_1" data-name="图层 1" xmlns="http://www.w3.org/2000/svg" viewBox="0 0 29 29"><defs><style>.cls-1{fill:#fff;}</style></defs><title>画板 1</title><path class="cls-1" d="M14.5,4.91a6.34,6.34,0,1,0,6.34,6.35h0A6.34,6.34,0,0,0,14.5,4.91ZM19,11.25A4.53,4.53,0,1,1,14.5,6.72,4.53,4.53,0,0,1,19,11.25Z"/><path class="cls-1" d="M24.48,15.81A10.75,10.75,0,0,0,25.63,11,11.13,11.13,0,0,0,3.37,11a10.75,10.75,0,0,0,1.15,4.83L0,23.52l5.77,1.17L9.64,29l4.15-7.09c.24,0,.47,0,.71,0s.47,0,.71,0L19.36,29l3.87-4.31c2.9-.6,5.77-1.17,5.77-1.17ZM9.42,26.19S8,24.64,6.72,23.36c-1.85-.53-4.2-1.07-4.2-1.07l2.86-5a12.78,12.78,0,0,0,6.68,4.28Zm5.08-6h0a9.27,9.27,0,0,1-9.29-9.07A9.69,9.69,0,0,1,14.5,1.57a9.31,9.31,0,0,1,0,18.62Zm8,2.93h0c-1.31,1.27-2.94,3.07-2.94,3.07l-2.64-4.58a12.14,12.14,0,0,0,6.44-4.28l3.1,5A34.78,34.78,0,0,0,22.52,23.13Z"/></svg>