<svg id="图层_1" data-name="图层 1" xmlns="http://www.w3.org/2000/svg" viewBox="0 0 29 29"><defs><style>.cls-1{fill:#fff;}</style></defs><title>画板 1 副本</title><path id="形状_7" data-name="形状 7" class="cls-1" d="M24.63,4.1H21.25V2.5H19.56V4.1H9.44V2.5H7.75V4.1H4.37A3.29,3.29,0,0,0,1,7.3v16a3.29,3.29,0,0,0,3.37,3.2H24.63A3.29,3.29,0,0,0,28,23.3V7.3a3.29,3.29,0,0,0-3.37-3.2h0Zm1.68,19.2a1.64,1.64,0,0,1-1.68,1.6H4.37a1.64,1.64,0,0,1-1.68-1.6V12.1H26.31V23.3Zm0-12.8H2.69V7.3A1.64,1.64,0,0,1,4.37,5.7H7.75V7.3H9.44V5.7H19.56V7.3h1.69V5.7h3.38a1.64,1.64,0,0,1,1.68,1.6ZM16.19,15.3H12.81v1.6h3.38Zm6.75,0H19.56v1.6h3.38Zm-6.75,4.8H12.81v1.6h3.38ZM9.44,15.3H6.06v1.6H9.44Zm0,4.8H6.06v1.6H9.44Zm13.5,0H19.56v1.6h3.38Z"/></svg>